<svg width="13" height="14" viewBox="0 0 13 14" fill="none" xmlns="http://www.w3.org/2000/svg">
<path d="M0.169177 13.955C0.00866701 13.8673 -0.00888426 13.7629 0.00296995 12.9664L0.0139041 12.2325L0.113161 12.1468C0.202935 12.0697 0.244477 12.0615 0.546636 12.0615H0.880677L0.881031 11.4335C0.881031 10.8733 0.888462 10.794 0.949325 10.6992C0.987188 10.6408 1.32088 10.2746 1.69101 9.88533L2.36475 9.17761L2.36546 6.66523L2.36652 4.15284L1.53354 3.51944C1.07565 3.17124 0.685702 2.85773 0.666947 2.82305C0.647308 2.78625 0.633154 2.23989 0.633154 1.51725C0.633154 0.158009 0.638922 0.116042 0.837153 0.0339823C0.909339 0.00404597 1.24727 -0.00494196 2.02328 0.00245366C3.36688 0.0152633 3.2639 -0.0349136 3.28124 0.615228L3.29292 1.05666H3.89165H4.49002V0.683982C4.49002 0.251286 4.53744 0.0989151 4.69101 0.035327C4.76674 0.00386912 5.14182 -0.00476503 6.10962 0.00270136C7.72073 0.0150864 7.58061 -0.042557 7.5983 0.615228L7.60998 1.05666H8.2087H8.80708V0.665688C8.80708 0.226445 8.84742 0.101781 9.01125 0.0339823C9.08344 0.00404597 9.42137 -0.00494196 10.1974 0.00245366C11.2728 0.0127155 11.283 0.0135294 11.363 0.0933596C11.4433 0.173862 11.4433 0.175065 11.4536 1.46884C11.4621 2.5389 11.455 2.77669 11.4136 2.83897C11.386 2.88037 10.9957 3.19318 10.5456 3.53359L9.72781 4.15284V6.66523L9.72746 9.17761L10.4391 9.9377C10.8304 10.356 11.1648 10.7349 11.1822 10.7806C11.1995 10.8259 11.2133 11.1313 11.2133 11.4589V12.0548L11.5665 12.0672C12.1015 12.0856 12.0803 12.0456 12.0803 13.0347C12.0803 13.8142 12.0788 13.8305 11.9999 13.9094L11.9192 13.9901L6.09051 13.9979C1.10325 14.0042 0.248334 13.9982 0.16907 13.955H0.169177Z" fill="black"/>
<path d="M10.8241 1.49898V0.632034H10.1372H9.45003L9.43835 1.07347C9.42101 1.72007 9.50983 1.67336 8.26921 1.68646C7.55937 1.69389 7.24337 1.68469 7.17119 1.65496C7.00735 1.58695 6.96701 1.46243 6.96701 1.02305V0.632034H6.04698H5.12696V1.05472C5.12696 1.4504 5.12165 1.4837 5.04168 1.57666L4.9564 1.67584L3.95604 1.68646C3.24337 1.69389 2.92632 1.68469 2.85413 1.65496C2.6903 1.58695 2.64996 1.46243 2.64996 1.02305V0.632034H1.95993H1.26991V1.49898V2.36586H6.04698H10.8241V1.49898Z" fill="white"/>
<path d="M9.77239 3.34782L10.202 3.0205L8.12447 3.0113C6.98187 3.00635 5.11315 3.00635 3.97196 3.0113L1.89694 3.0205L2.31768 3.34605L2.73841 3.6716L6.04061 3.67337L9.3428 3.67514L9.77239 3.34782Z" fill="white"/>
<path d="M9.09017 6.64754V4.31208H6.047H3.00383V6.64754V8.983H6.047H9.09017V6.64754Z" fill="white"/>
<path d="M10.0926 10.4936C10.0569 10.4487 9.86086 10.2335 9.65633 10.0159L9.28478 9.61994H6.04451H2.80389L2.35272 10.0976L1.9012 10.5754H6.0293H10.157L10.0926 10.4936Z" fill="white"/>
<path d="M10.5764 11.6369V11.2123H6.04699H1.51762V11.6369V12.0616H6.04699H10.5764V11.6369Z" fill="white"/>
<path d="M11.461 13.0347V12.6985H6.04699H0.63298L0.633157 13.0347V13.3708H6.04717H11.4608V13.0347H11.461Z" fill="white"/>
</svg>
